<svg width="51" height="27" viewBox="0 0 51 27" fill="none" xmlns="http://www.w3.org/2000/svg">
<path fill-rule="evenodd" clip-rule="evenodd" d="M17.4458 20.5423C20.4517 18.5304 22.4307 15.104 22.4307 11.2154C22.4307 5.02129 17.4094 0 11.2154 0C5.02129 0 0 5.02129 0 11.2154C0 15.326 2.21149 18.9202 5.50962 20.8729C4.43761 22.9057 2.96864 24.6765 0.830896 27.0001C8.36758 26.1426 13.2086 24.2891 17.4458 20.5423Z" fill="#66A5AE"/>
<path fill-rule="evenodd" clip-rule="evenodd" d="M45.1214 20.5418C48.1268 18.5298 50.1055 15.1037 50.1055 11.2154C50.1055 5.02129 45.0842 0 38.8902 0C32.6961 0 27.6748 5.02129 27.6748 11.2154C27.6748 15.3261 29.8864 18.9203 33.1846 20.873C32.1126 22.9057 30.6436 24.6765 28.5059 27.0001C36.0429 26.1425 40.884 24.2889 45.1214 20.5418Z" fill="#66A5AE"/>
</svg>
